
<svg width="27px" height="32px" viewBox="0 0 27 32" version="1.1" xmlns="http://www.w3.org/2000/svg" xmlns:xlink="http://www.w3.org/1999/xlink">
    <!-- Generator: Sketch 47 (45396) - http://www.bohemiancoding.com/sketch -->
    <desc>Created with Sketch.</desc>
    <defs>
        <linearGradient x1="100%" y1="0%" x2="0%" y2="100%" id="linearGradient-1">
            <stop stop-color="#FF7854" offset="0%"></stop>
            <stop stop-color="#FD267D" offset="100%"></stop>
        </linearGradient>
    </defs>
    <g id="FAQ" stroke="none" stroke-width="1" fill="none" fill-rule="evenodd">
        <g id="Mobile-Home-Copy-3" transform="translate(-174.000000, -98.000000)" fill="url(#linearGradient-1)">
            <path d="M182.1,110.912828 C188.142857,108.803604 189.171429,103.309207 188.4,98.2574861 C188.4,98.0752075 188.554286,97.9450085 188.708571,98.0231279 C194.494286,100.861466 201,107.084978 201,116.459305 C201,123.646289 195.497143,130 187.5,130 C178.962857,130 174,123.828568 174,116.459305 C174,112.162738 177.008571,107.735973 180.248571,105.861107 C180.402857,105.756948 180.608571,105.861107 180.608571,106.043386 C180.685714,107.006858 180.942857,109.454599 181.997143,110.886788 C182.022857,110.912828 182.074286,110.912828 182.1,110.912828 Z" id="Fill-1"></path>
        </g>
    </g>
</svg>